<svg width="33" height="33" viewBox="0 0 33 33" fill="none" xmlns="http://www.w3.org/2000/svg">
    <circle cx="16.5" cy="16.5" r="16.5" fill="#E3ECF3"/>
    <path d="M17.2812 23.0366C18.6998 23.0398 20.0869 22.6179 21.2635 21.8255C22.4401 21.033 23.3524 19.9062 23.8827 18.5904L23.4402 18.1483C22.6702 18.4629 21.8464 18.6246 21.0147 18.6244C19.9578 18.6252 18.917 18.3661 17.9839 17.8698C17.0508 17.3735 16.2541 16.6554 15.664 15.7786C15.0739 14.9018 14.7085 13.8934 14.6 12.8421C14.4915 11.7908 14.6433 10.729 15.042 9.75021L14.5999 9.30769C13.0682 9.92941 11.8002 11.0643 11.0132 12.5181C10.2262 13.9719 9.96915 15.654 10.286 17.2765C10.6029 18.899 11.474 20.3608 12.7501 21.4116C14.0263 22.4625 15.6281 23.0369 17.2812 23.0366Z"
          fill="#55678B"/>
</svg>
