<svg width="68" height="33" viewBox="0 0 68 33" fill="none" xmlns="http://www.w3.org/2000/svg">
    <rect width="68" height="33" rx="16.5" fill="#E3ECF3"/>
    <path d="M28.1348 17.7822H24.1289V22H22.3994V12.0469H28.7227V13.4414H24.1289V16.4014H28.1348V17.7822ZM34.3555 19.6826H30.5L29.6934 22H27.8955L31.6553 12.0469H33.207L36.9736 22H35.1689L34.3555 19.6826ZM30.9854 18.2881H33.8701L32.4277 14.1592L30.9854 18.2881ZM45.8672 17.2832C45.8672 18.2266 45.7168 19.0446 45.416 19.7373C45.1198 20.4255 44.7028 20.9723 44.165 21.3779L45.874 22.7109L44.7529 23.7227L42.6338 22.0479C42.3558 22.1071 42.0573 22.1367 41.7383 22.1367C40.9362 22.1367 40.2184 21.9408 39.585 21.5488C38.9561 21.1523 38.4684 20.5895 38.1221 19.8604C37.7803 19.1312 37.6071 18.2904 37.6025 17.3379V16.7773C37.6025 15.8066 37.7734 14.9499 38.1152 14.207C38.4616 13.4642 38.9469 12.8968 39.5713 12.5049C40.2002 12.1084 40.918 11.9102 41.7246 11.9102C42.5449 11.9102 43.2673 12.1061 43.8916 12.498C44.5205 12.8854 45.0059 13.446 45.3477 14.1797C45.6895 14.9089 45.8626 15.7588 45.8672 16.7295V17.2832ZM44.1309 16.7637C44.1309 15.6426 43.9212 14.7926 43.502 14.2139C43.0827 13.6351 42.4902 13.3457 41.7246 13.3457C40.9818 13.3457 40.3984 13.6396 39.9746 14.2275C39.5553 14.8109 39.3411 15.6357 39.332 16.7021V17.2832C39.332 18.3587 39.5417 19.1995 39.9609 19.8057C40.3848 20.4118 40.9772 20.7148 41.7383 20.7148C42.5085 20.7148 43.0986 20.4232 43.5088 19.8398C43.9235 19.2565 44.1309 18.4043 44.1309 17.2832V16.7637Z"
          fill="#55678B"/>
</svg>
