<svg width="47" height="47" viewBox="0 0 47 47" fill="none" xmlns="http://www.w3.org/2000/svg">
    <path d="M26.3575 18.6495H20.6235C20.0313 18.6495 19.5425 19.1383 19.5425 19.7305C19.5425 20.3227 20.0313 20.8115 20.6235 20.8115H26.3575C26.9591 20.8115 27.4385 20.3227 27.4385 19.7305C27.4385 19.1383 26.9497 18.6495 26.3575 18.6495Z"
          fill="#142D51"/>
    <path d="M19.9093 10.105V15.7356H27.0909V10.105H19.9093ZM21.8457 14.1282H20.9151V11.6748H21.8457V14.1282ZM26.0851 14.1282H25.1545V11.6748H26.0851V14.1282Z"
          fill="#142D51"/>
    <path d="M23.5 0C10.5186 0 0 10.5186 0 23.5C0 36.4814 10.5186 47 23.5 47C36.4814 47 47 36.4814 47 23.5C47 10.5186 36.4814 0 23.5 0ZM31.49 29.61C31.49 34.0186 27.9086 37.6 23.5 37.6C19.0914 37.6 15.51 34.0186 15.51 29.61V15.7356H18.4992V8.695H28.5008V15.7356H31.49V29.61Z"
          fill="#142D51"/>
</svg>
