<svg width="195" height="35" viewBox="0 0 195 35" fill="none" xmlns="http://www.w3.org/2000/svg">
    <rect x="146.5" y="7.5" width="48" height="19" rx="9.5" fill="#1787E0" fill-opacity="0.09" stroke="#00B6FA"/>
    <path d="M160.436 19.6738C160.436 20.4355 160.16 21.0332 159.609 21.4668C159.059 21.9004 158.299 22.1172 157.33 22.1172C156.361 22.1172 155.568 21.9668 154.951 21.666V20.3418C155.342 20.5254 155.756 20.6699 156.193 20.7754C156.635 20.8809 157.045 20.9336 157.424 20.9336C157.979 20.9336 158.387 20.8281 158.648 20.6172C158.914 20.4062 159.047 20.123 159.047 19.7676C159.047 19.4473 158.926 19.1758 158.684 18.9531C158.441 18.7305 157.941 18.4668 157.184 18.1621C156.402 17.8457 155.852 17.4844 155.531 17.0781C155.211 16.6719 155.051 16.1836 155.051 15.6133C155.051 14.8984 155.305 14.3359 155.812 13.9258C156.32 13.5156 157.002 13.3105 157.857 13.3105C158.678 13.3105 159.494 13.4902 160.307 13.8496L159.861 14.9922C159.1 14.6719 158.42 14.5117 157.822 14.5117C157.369 14.5117 157.025 14.6113 156.791 14.8105C156.557 15.0059 156.439 15.2656 156.439 15.5898C156.439 15.8125 156.486 16.0039 156.58 16.1641C156.674 16.3203 156.828 16.4688 157.043 16.6094C157.258 16.75 157.645 16.9355 158.203 17.166C158.832 17.4277 159.293 17.6719 159.586 17.8984C159.879 18.125 160.094 18.3809 160.23 18.666C160.367 18.9512 160.436 19.2871 160.436 19.6738ZM169.998 22H168.475L167.021 16.8906C166.959 16.668 166.881 16.3477 166.787 15.9297C166.693 15.5078 166.637 15.2148 166.617 15.0508C166.578 15.3008 166.514 15.625 166.424 16.0234C166.338 16.4219 166.266 16.7188 166.207 16.9141L164.789 22H163.266L162.158 17.7109L161.033 13.4336H162.463L163.688 18.4258C163.879 19.2266 164.016 19.9336 164.098 20.5469C164.141 20.2148 164.205 19.8438 164.291 19.4336C164.377 19.0234 164.455 18.6914 164.525 18.4375L165.92 13.4336H167.309L168.738 18.4609C168.875 18.9258 169.02 19.6211 169.172 20.5469C169.23 19.9883 169.371 19.2773 169.594 18.4141L170.812 13.4336H172.23L169.998 22ZM178.764 22L177.908 19.6211H174.633L173.795 22H172.318L175.523 13.3984H177.047L180.252 22H178.764ZM177.539 18.4141L176.736 16.082C176.678 15.9258 176.596 15.6797 176.49 15.3438C176.389 15.0078 176.318 14.7617 176.279 14.6055C176.174 15.0859 176.02 15.6113 175.816 16.1816L175.043 18.4141H177.539ZM187.055 16.0234C187.055 16.918 186.762 17.6035 186.176 18.0801C185.59 18.5566 184.756 18.7949 183.674 18.7949H182.783V22H181.383V13.4336H183.85C184.92 13.4336 185.721 13.6523 186.252 14.0898C186.787 14.5273 187.055 15.1719 187.055 16.0234ZM182.783 17.6172H183.527C184.246 17.6172 184.773 17.4922 185.109 17.2422C185.445 16.9922 185.613 16.6016 185.613 16.0703C185.613 15.5781 185.463 15.2109 185.162 14.9688C184.861 14.7266 184.393 14.6055 183.756 14.6055H182.783V17.6172Z"
          fill="#00B6FA"/>
    <g clip-path="url(#clip0)">
        <path d="M39.2961 22.5129C40.1833 23.0305 41.4402 23.511 42.771 23.511C44.7672 23.511 45.9132 22.476 45.9132 20.9603C45.9132 19.5556 45.0999 18.7423 43.0667 17.966C40.6269 17.0788 39.1112 15.8219 39.1112 13.7148C39.1112 11.3858 41.0335 9.64838 43.9539 9.64838C45.5065 9.64838 46.6155 10.018 47.281 10.3877L46.7634 11.9773C46.2828 11.7185 45.2847 11.2749 43.9169 11.2749C41.8838 11.2749 41.0705 12.4948 41.0705 13.5299C41.0705 14.9347 41.9947 15.637 44.0648 16.4134C46.6155 17.4115 47.9094 18.6314 47.9094 20.8124C47.9094 23.1414 46.2089 25.1376 42.6601 25.1376C41.2184 25.1376 39.6288 24.7309 38.8155 24.1764L39.2961 22.5129Z"
              fill="#142D51"/>
        <path d="M59.8124 17.818H53.9716V23.2521H60.4779V24.8787H52.0124V9.87006H60.1082V11.4966H53.9716V16.2284H59.8124V17.818Z"
              fill="#142D51"/>
        <path d="M64.4707 24.8787V9.87006H66.5779L71.3836 17.4853C72.4926 19.2597 73.3798 20.8123 74.0822 22.3649L74.1191 22.328C73.9343 20.3317 73.8973 18.4834 73.8973 16.1545V9.87006H75.7087V24.8787H73.7495L68.9807 17.2635C67.9456 15.6 66.9475 13.8625 66.1712 12.2359L66.0973 12.2729C66.2082 14.1582 66.2452 15.9696 66.2452 18.4834V24.9157L64.4707 24.8787Z"
              fill="#142D51"/>
        <path d="M83.5086 11.4968H78.9247V9.83325H90.0518V11.4968H85.4679V24.8789H83.5086V11.4968Z" fill="#142D51"/>
        <path d="M95.153 9.87006V24.8787H93.2307V9.87006H95.153Z" fill="#142D51"/>
        <path d="M100.033 24.8787V9.87006H102.14L106.946 17.4853C108.055 19.2597 108.942 20.8123 109.644 22.3649L109.681 22.328C109.496 20.3317 109.459 18.4834 109.459 16.1545V9.87006H111.271V24.8787H109.312L104.543 17.2635C103.508 15.6 102.51 13.8625 101.733 12.2359L101.659 12.2729C101.77 14.1582 101.807 15.9696 101.807 18.4834V24.9157L100.033 24.8787Z"
              fill="#142D51"/>
        <path d="M123.988 17.818H118.147V23.2521H124.653V24.8787H116.188V9.87006H124.284V11.4966H118.11V16.2284H123.951V17.818H123.988Z"
              fill="#142D51"/>
        <path d="M128.645 9.87006H130.568V23.2521H137V24.8787H128.645V9.87006Z" fill="#142D51"/>
        <path d="M29.0902 3.69672V15.472C29.0902 17.9237 29.3131 22.4926 27.2329 26.0215C24.5584 30.5162 19.6922 33.9336 14.9375 34.3422C10.1828 33.8965 5.31668 30.4791 2.64216 25.9844C0.56198 22.4926 0.784857 17.8865 0.784857 15.4349V3.69672H29.0902Z"
              fill="#142D51"/>
        <path d="M29.1259 3.69684V15.5093C29.1259 17.9609 29.3488 22.5671 27.2315 26.0588C24.557 30.5535 19.6537 33.9709 14.9361 34.3795C10.1814 33.9709 5.27813 30.5535 2.60361 26.0588C0.523429 22.5299 0.746305 17.9609 0.746305 15.5093V3.69684H29.1259Z"
              stroke="#00B6FA" stroke-width="0.914908" stroke-miterlimit="10"/>
        <path d="M21.7029 26.0402L20.3833 25.0506C20.0168 25.4171 19.6136 25.7837 19.1738 26.0769L20.4566 27.0299V27.1398C21.7395 26.1502 22.8391 24.904 23.6821 23.4745C24.122 22.6681 24.4519 21.8251 24.6351 20.9454V20.9088C24.4519 21.7884 24.122 22.7048 23.6455 23.4745C23.1323 24.4275 22.4726 25.2705 21.7029 26.0402Z"
              fill="#00B6FA"/>
        <path d="M21.704 26.0402L20.3845 25.0506C20.018 25.4171 19.6013 25.7936 19.1615 26.0869L20.4578 27.0299V27.1398C21.7407 26.1502 22.8403 24.904 23.6833 23.4745C24.1231 22.6681 24.453 21.8251 24.6363 20.9454V20.9088C24.453 21.7884 24.1231 22.7048 23.6466 23.4745C23.1335 24.4275 22.4737 25.2705 21.704 26.0402Z"
              fill="#00B6FA"/>
        <path d="M19.1758 28.0199C17.8196 28.8263 16.3901 29.3394 14.924 29.486C16.3535 29.3761 17.8196 28.8263 19.1758 28.0199Z"
              fill="#142D51"/>
        <path d="M19.1758 28.0199C17.8196 28.8263 16.3901 29.3394 14.924 29.486C16.3535 29.3761 17.8196 28.8263 19.1758 28.0199Z"
              fill="url(#paint0_linear)"/>
        <path d="M8.87425 7.31036L11.0735 8.95977H13.6025L11.4033 7.31036H8.87425Z" fill="#00B6FA"/>
        <path d="M8.87425 7.31036L11.0735 8.95977H13.6025L11.4033 7.31036H8.87425Z" fill="#00B6FA"/>
        <path d="M7.26332 7.31116H4.77089V13.359L20.3853 25.0514C22.3279 23.1088 23.3542 20.8363 23.4641 20.3598C23.5374 20.1032 23.6108 20.0299 23.7574 20.0299C24.0139 20.0299 24.3438 20.3598 24.6737 20.763V20.9096C24.7837 20.4697 24.857 20.0299 24.8936 19.6267V19.2968L11.0753 8.96056H7.26332V7.31116Z"
              fill="#00B6FA"/>
        <path d="M7.26332 7.31116H4.77089V13.359L20.3853 25.0514C22.3602 23.2554 23.4598 20.8729 23.4641 20.3598C23.5374 20.1032 23.6108 20.0299 23.7574 20.0299C24.0139 20.0299 24.3438 20.3598 24.6737 20.763V20.9096C24.7837 20.4697 24.857 20.0299 24.8936 19.6267V19.2968L11.0753 8.96056H7.26332V7.31116Z"
              fill="#00B6FA"/>
        <path d="M23.7545 20.0286C23.6079 20.0286 23.5346 20.1019 23.4613 20.3585C23.388 20.835 22.3617 23.1442 20.3824 25.0501L21.7019 26.0398C22.4717 25.2701 23.1314 24.427 23.6812 23.474C24.1577 22.6677 24.4876 21.788 24.6709 20.9083V20.7617C24.341 20.3585 24.0111 20.0286 23.7545 20.0286Z"
              fill="#00B6FA"/>
        <path d="M23.7545 20.0286C23.6079 20.0286 23.5346 20.1019 23.4613 20.3585C23.388 20.835 22.3617 23.1442 20.3824 25.0501L21.7019 26.0398C22.4717 25.2701 23.1314 24.427 23.6812 23.474C24.1577 22.6677 24.4876 21.788 24.6709 20.9083V20.7617C24.341 20.3585 24.0111 20.0286 23.7545 20.0286Z"
              fill="#00B6FA"/>
        <path d="M23.7545 20.0286C23.6079 20.0286 23.5346 20.1019 23.4613 20.3585C23.388 20.835 22.3617 23.1442 20.3824 25.0501L21.7019 26.0398C22.4717 25.2701 23.1314 24.427 23.6812 23.474C24.1577 22.6677 24.4876 21.788 24.6709 20.9083V20.7617C24.341 20.3585 24.0111 20.0286 23.7545 20.0286Z"
              fill="#00B6FA"/>
        <path d="M7.26273 7.31036V8.95977H11.0747L8.87548 7.31036H7.26273Z" fill="#00B6FA"/>
        <path d="M7.26273 7.31036V8.95977H11.0747L8.87548 7.31036H7.26273Z" fill="#00B6FA"/>
        <path d="M7.26273 7.31036V8.95977H11.0747L8.87548 7.31036H7.26273Z" fill="#00B6FA"/>
        <path d="M25.0019 7.31036H24.892H23.3892V8.95977H13.6027L25.0019 17.5C25.0019 16.8769 25.0019 16.2905 25.0019 15.814V7.31036Z"
              fill="#00B6FA"/>
        <path d="M25.0019 7.31036H24.892H23.3892V8.95977H13.6027L25.0019 17.5C25.0019 16.8769 25.0019 16.2905 25.0019 15.814V7.31036Z"
              fill="#00B6FA"/>
        <path d="M23.3891 7.31036H11.4035L13.6027 8.95977H23.3891V7.31036Z" fill="#00B6FA"/>
        <path d="M23.3891 7.31036H11.4035L13.6027 8.95977H23.3891V7.31036Z" fill="#00B6FA"/>
        <path d="M23.3891 7.31036H11.4035L13.6027 8.95977H23.3891V7.31036Z" fill="#00B6FA"/>
        <path d="M19.2477 27.983C19.2107 27.983 19.2107 28.02 19.1738 28.02C19.1738 28.02 19.2107 28.02 19.2477 27.983Z"
              fill="#142D51"/>
        <path d="M19.2477 27.983C19.2107 27.983 19.2107 28.02 19.1738 28.02C19.1738 28.02 19.2107 28.02 19.2477 27.983Z"
              fill="url(#paint1_linear)"/>
        <path d="M15.472 27.7625C16.9015 27.5059 18.1477 26.8828 19.2106 26.1131L4.76918 15.337V15.8501C4.76918 17.6095 4.62257 20.945 6.12536 23.474C7.77476 26.333 10.6337 28.5322 13.6027 29.2653C13.0895 28.7155 13.3827 28.129 15.472 27.7625Z"
              fill="#00B6FA"/>
        <path d="M15.472 27.7625C17.0442 27.6526 18.1477 26.8828 19.2106 26.1131L4.76918 15.337V15.8501C4.76918 17.6095 4.62257 20.945 6.12536 23.474C7.77476 26.333 10.6337 28.5322 13.6027 29.2653C13.0895 28.7155 13.3827 28.129 15.472 27.7625Z"
              fill="#00B6FA"/>
        <path d="M19.2096 26.1138C18.1466 26.8835 16.9371 27.5066 15.4709 27.7632C13.3817 28.1297 13.0885 28.7162 13.6016 29.266C13.7482 29.3026 13.8948 29.3393 14.0415 29.3393C14.3347 29.4126 14.6279 29.4492 14.9211 29.4859C16.3506 29.3393 17.8168 28.8261 19.1729 28.0197C19.2096 28.0197 19.2096 27.9831 19.2462 27.9831C19.3929 27.9098 19.5395 27.7998 19.6861 27.6899C19.9793 27.5066 20.2359 27.2867 20.5291 27.1034V27.0668L19.2096 26.1138Z"
              fill="#00B6FA"/>
        <path d="M19.2096 26.1138C18.1466 26.8835 16.9371 27.5066 15.4709 27.7632C13.3817 28.1297 13.0885 28.7162 13.6016 29.266C13.7482 29.3026 13.8948 29.3393 14.0415 29.3393C14.3347 29.4126 14.6279 29.4492 14.9211 29.4859C16.3506 29.3393 17.8168 28.8261 19.1729 28.0197C19.2096 28.0197 19.2096 27.9831 19.2462 27.9831C19.3929 27.9098 19.5395 27.7998 19.6861 27.6899C19.9793 27.5066 20.2359 27.2666 20.5291 27.0834V27.0668L19.2096 26.1138Z"
              fill="#00B6FA"/>
        <path d="M19.2096 26.1138C18.1466 26.8835 16.9371 27.5066 15.4709 27.7632C13.3817 28.1297 13.0885 28.7162 13.6016 29.266C13.7482 29.3026 13.8948 29.3393 14.0415 29.3393C14.3347 29.4126 14.6279 29.4492 14.9211 29.4859C16.3506 29.3393 17.8168 28.8261 19.1729 28.0197C19.2096 28.0197 19.2096 27.9831 19.2462 27.9831C19.3929 27.9098 19.5395 27.7998 19.6861 27.6899C19.9793 27.5066 20.2359 27.2665 20.5291 27.0832V27.0668L19.2096 26.1138Z"
              fill="#00B6FA"/>
    </g>
    <defs>
        <linearGradient id="paint0_linear" x1="13.4001" y1="28.7609" x2="25.6299" y2="28.7609"
                        gradientUnits="userSpaceOnUse">
            <stop stop-color="#01AAE4"/>
            <stop offset="1" stop-color="#1F96F4"/>
        </linearGradient>
        <linearGradient id="paint1_linear" x1="-15.6283" y1="28.0179" x2="28.0985" y2="28.0179"
                        gradientUnits="userSpaceOnUse">
            <stop stop-color="#01AAE4"/>
            <stop offset="1" stop-color="#1F96F4"/>
        </linearGradient>
        <clipPath id="clip0">
            <rect width="137" height="34.86" fill="white"/>
        </clipPath>
    </defs>
</svg>
