<svg width="47" height="43" viewBox="0 0 47 43" fill="none" xmlns="http://www.w3.org/2000/svg">
    <path d="M43.9155 0.685699L26.2783 13.736L29.5581 6.04503L43.9155 0.685699Z" fill="#E17726" stroke="#E17726"
          stroke-width="0.335714" stroke-linecap="round" stroke-linejoin="round"/>
    <path d="M3.23303 0.685699L20.7132 13.8578L17.5905 6.04502L3.23303 0.685699Z" fill="#E27625" stroke="#E27625"
          stroke-width="0.335714" stroke-linecap="round" stroke-linejoin="round"/>
    <path d="M37.5651 30.9449L32.8723 38.1139L42.9208 40.8806L45.7993 31.1016L37.5651 30.9449Z" fill="#E27625"
          stroke="#E27625" stroke-width="0.335714" stroke-linecap="round" stroke-linejoin="round"/>
    <path d="M1.36633 31.1016L4.22734 40.8806L14.2584 38.1139L9.58305 30.9449L1.36633 31.1016Z" fill="#E27625"
          stroke="#E27625" stroke-width="0.335714" stroke-linecap="round" stroke-linejoin="round"/>
    <path d="M13.7175 18.8342L10.9263 23.0452L20.8701 23.4976L20.5386 12.7964L13.7175 18.8342Z" fill="#E27625"
          stroke="#E27625" stroke-width="0.335714" stroke-linecap="round" stroke-linejoin="round"/>
    <path d="M33.4304 18.8344L26.5048 12.6747L26.278 23.4978L36.2217 23.0454L33.4304 18.8344Z" fill="#E27625"
          stroke="#E27625" stroke-width="0.335714" stroke-linecap="round" stroke-linejoin="round"/>
    <path d="M14.2585 38.1138L20.2771 35.208L15.096 31.1711L14.2585 38.1138Z" fill="#E27625" stroke="#E27625"
          stroke-width="0.335714" stroke-linecap="round" stroke-linejoin="round"/>
    <path d="M26.8715 35.208L32.8726 38.1138L32.0526 31.1711L26.8715 35.208Z" fill="#E27625" stroke="#E27625"
          stroke-width="0.335714" stroke-linecap="round" stroke-linejoin="round"/>
    <path d="M32.8726 38.114L26.8715 35.2082L27.3599 39.1059L27.3075 40.7589L32.8726 38.114Z" fill="#D5BFB2"
          stroke="#D5BFB2" stroke-width="0.335714" stroke-linecap="round" stroke-linejoin="round"/>
    <path d="M14.2585 38.114L19.8411 40.7589L19.8062 39.1059L20.2771 35.2082L14.2585 38.114Z" fill="#D5BFB2"
          stroke="#D5BFB2" stroke-width="0.335714" stroke-linecap="round" stroke-linejoin="round"/>
    <path d="M19.9456 28.596L14.9562 27.1344L18.4801 25.5161L19.9456 28.596Z" fill="#233447" stroke="#233447"
          stroke-width="0.335714" stroke-linecap="round" stroke-linejoin="round"/>
    <path d="M27.2029 28.596L28.6683 25.5161L32.2097 27.1344L27.2029 28.596Z" fill="#233447" stroke="#233447"
          stroke-width="0.335714" stroke-linecap="round" stroke-linejoin="round"/>
    <path d="M14.2584 38.1139L15.1307 30.9449L9.58313 31.1016L14.2584 38.1139Z" fill="#CC6228" stroke="#CC6228"
          stroke-width="0.335714" stroke-linecap="round" stroke-linejoin="round"/>
    <path d="M32.0176 30.9449L32.8724 38.1139L37.5652 31.1016L32.0176 30.9449Z" fill="#CC6228" stroke="#CC6228"
          stroke-width="0.335714" stroke-linecap="round" stroke-linejoin="round"/>
    <path d="M36.2217 23.0451L26.278 23.4975L27.2025 28.596L28.668 25.516L32.2094 27.1343L36.2217 23.0451Z"
          fill="#CC6228" stroke="#CC6228" stroke-width="0.335714" stroke-linecap="round" stroke-linejoin="round"/>
    <path d="M14.9561 27.1343L18.48 25.516L19.9455 28.596L20.8701 23.4975L10.9263 23.0451L14.9561 27.1343Z"
          fill="#CC6228" stroke="#CC6228" stroke-width="0.335714" stroke-linecap="round" stroke-linejoin="round"/>
    <path d="M10.9266 23.0451L15.0961 31.1712L14.9564 27.1343L10.9266 23.0451Z" fill="#E27525" stroke="#E27525"
          stroke-width="0.335714" stroke-linecap="round" stroke-linejoin="round"/>
    <path d="M32.2097 27.1343L32.0527 31.1712L36.2222 23.0451L32.2097 27.1343Z" fill="#E27525" stroke="#E27525"
          stroke-width="0.335714" stroke-linecap="round" stroke-linejoin="round"/>
    <path d="M20.8707 23.4976L19.946 28.596L21.1149 34.6164L21.3766 26.6819L20.8707 23.4976Z" fill="#E27525"
          stroke="#E27525" stroke-width="0.335714" stroke-linecap="round" stroke-linejoin="round"/>
    <path d="M26.2783 23.4976L25.7898 26.6646L26.0341 34.6164L27.2029 28.596L26.2783 23.4976Z" fill="#E27525"
          stroke="#E27525" stroke-width="0.335714" stroke-linecap="round" stroke-linejoin="round"/>
    <path d="M27.2029 28.5961L26.0341 34.6165L26.8715 35.2082L32.0527 31.1713L32.2097 27.1344L27.2029 28.5961Z"
          fill="#F5841F" stroke="#F5841F" stroke-width="0.335714" stroke-linecap="round" stroke-linejoin="round"/>
    <path d="M14.9562 27.1344L15.0958 31.1713L20.277 35.2082L21.1144 34.6165L19.9456 28.5961L14.9562 27.1344Z"
          fill="#F5841F" stroke="#F5841F" stroke-width="0.335714" stroke-linecap="round" stroke-linejoin="round"/>
    <path d="M27.3076 40.7588L27.3599 39.1058L26.9064 38.7229H20.2423L19.8062 39.1058L19.8411 40.7588L14.2585 38.1139L16.2124 39.7147L20.1725 42.4466H26.9586L30.9362 39.7147L32.8726 38.1139L27.3076 40.7588Z"
          fill="#C0AC9D" stroke="#C0AC9D" stroke-width="0.335714" stroke-linecap="round" stroke-linejoin="round"/>
    <path d="M26.8713 35.208L26.0339 34.6165H21.1144L20.2771 35.208L19.806 39.1058L20.2422 38.7229H26.9063L27.3599 39.1058L26.8713 35.208Z"
          fill="#161616" stroke="#161616" stroke-width="0.335714" stroke-linecap="round" stroke-linejoin="round"/>
    <path d="M44.6655 14.5886L46.1484 7.38485L43.9154 0.685699L26.8715 13.301L33.4308 18.8343L42.6942 21.5314L44.7354 19.1476L43.8457 18.5037L45.2587 17.2161L44.1771 16.3809L45.5902 15.302L44.6655 14.5886Z"
          fill="#763E1A" stroke="#763E1A" stroke-width="0.335714" stroke-linecap="round" stroke-linejoin="round"/>
    <path d="M1 7.38482L2.50029 14.5885L1.54081 15.302L2.97131 16.3808L1.88971 17.2161L3.30277 18.5036L2.41306 19.1475L4.45416 21.5314L13.7177 18.8342L20.277 13.301L3.233 0.685669L1 7.38482Z"
          fill="#763E1A" stroke="#763E1A" stroke-width="0.335714" stroke-linecap="round" stroke-linejoin="round"/>
    <path d="M42.6943 21.5313L33.4309 18.8343L36.2222 23.0452L32.0527 31.1711L37.5654 31.1016H45.7996L42.6943 21.5313Z"
          fill="#F5841F" stroke="#F5841F" stroke-width="0.335714" stroke-linecap="round" stroke-linejoin="round"/>
    <path d="M13.7175 18.8343L4.45414 21.5313L1.36633 31.1016H9.58305L15.0957 31.1711L10.9263 23.0452L13.7175 18.8343Z"
          fill="#F5841F" stroke="#F5841F" stroke-width="0.335714" stroke-linecap="round" stroke-linejoin="round"/>
    <path d="M26.2782 23.4976L26.8713 13.3009L29.5579 6.04501H17.5905L20.277 13.3009L20.8701 23.4976L21.0969 26.6993L21.1144 34.6165H26.0339L26.0514 26.6993L26.2782 23.4976Z"
          fill="#F5841F" stroke="#F5841F" stroke-width="0.335714" stroke-linecap="round" stroke-linejoin="round"/>
</svg>
